<?xml version="1.0" encoding="UTF-8"?>
<svg xmlns="http://www.w3.org/2000/svg" width="1024" height="1024" viewBox="0 0 1024 1024" role="img" aria-label="LeadPages">
  <rect width="1024" height="1024" fill="#f6f4ef"/>
  <g transform="translate(512 502) scale(2.75) translate(-170 -155)">
    <path fill="#2ecc8f" d="M168.33,229.3c-2.46.17-4.99.23-7.89.23-25.42,0-49.32-9.9-67.3-27.88s-27.88-41.88-27.88-67.3,9.9-49.32,27.88-67.3c17.98-17.98,41.88-27.88,67.3-27.88s49.32,9.9,67.3,27.88c17.98,17.98,27.88,41.88,27.88,67.3,0,3.18,0,5.49-.18,7.85l27.3,8.23c.7-5.33,1.05-10.71,1.05-16.07,0-16.65-3.26-32.8-9.7-48.02-6.21-14.69-15.11-27.88-26.43-39.21-11.32-11.32-24.52-20.22-39.21-26.43-15.22-6.44-31.37-9.7-48.02-9.7s-32.8,3.26-48.02,9.7c-14.69,6.21-27.88,15.11-39.21,26.43s-20.22,24.51-26.43,39.21c-6.44,15.22-9.7,31.37-9.7,48.02s3.26,32.8,9.7,48.02c6.21,14.69,15.11,27.88,26.43,39.21,11.32,11.32,24.51,20.22,39.21,26.43,15.22,6.44,31.37,9.7,48.02,9.7,5.39,0,10.79-.36,16.13-1.06l-8.24-27.34Z"/>
    <path fill="#13161b" d="M331.86,266.49l-53.89-53.89,39.47-17.97c3.07-1.4,4.5-4.84,3.57-8.55-.49-1.94-1.57-3.74-3.02-5.19-1.33-1.33-2.97-2.36-4.75-2.89l-142.93-43.06c-2.95-.89-5.82-.31-7.68,1.55-1.86,1.86-2.44,4.73-1.55,7.68l43.06,142.93c1.12,3.7,4.36,6.82,8.08,7.76,3.72.94,7.16-.49,8.55-3.57l17.97-39.47,53.89,53.89c3.8,3.8,9.38,4.4,12.44,1.34l28.13-28.13c3.06-3.06,2.46-8.64-1.34-12.44Z"/>
    <path fill="#2ecc8f" d="M153.23,179.17c-21.62-3.46-38.19-22.25-38.19-44.83,0-25.03,20.37-45.4,45.4-45.4,22.56,0,41.33,16.54,44.82,38.13l25.93,7.81c0-.18,0-.36,0-.54,0-18.9-7.36-36.67-20.72-50.03-13.36-13.36-31.13-20.72-50.03-20.72s-36.67,7.36-50.03,20.72c-13.36,13.36-20.72,31.13-20.72,50.03s7.36,36.67,20.72,50.03c13.36,13.36,31.13,20.72,50.03,20.72.2,0,.4,0,.6,0l-7.81-25.92Z"/>
  </g>
</svg>
