<?xml version="1.0" encoding="UTF-8"?>
<svg id="Layer_1" xmlns="http://www.w3.org/2000/svg" version="1.1" viewBox="0 0 1000 320">
  <!-- Generator: Adobe Illustrator 30.6.0, SVG Export Plug-In . SVG Version: 2.1.4 Build 109)  -->
 <defs>
  <style>
    .st0 { fill: var(--lp-logo-accent, #2ecc8f); }
    .st1 { fill: var(--lp-logo-ink, #13161b); }
  </style>
</defs>
  <g>
    <g id="leadpages">
      <path class="st1" d="M353.67,75.54h23.94v86.04h-23.94v-86.04Z"/>
      <path class="st1" d="M462.06,136.34h-47.89c.43,3.83,1.47,6.69,3.11,8.57,2.31,2.7,5.32,4.05,9.04,4.05,2.35,0,4.58-.59,6.69-1.76,1.29-.74,2.68-2.05,4.17-3.93l23.53,2.17c-3.6,6.26-7.94,10.75-13.03,13.47-5.09,2.72-12.38,4.08-21.89,4.08-8.26,0-14.75-1.16-19.48-3.49-4.73-2.33-8.66-6.02-11.77-11.09-3.11-5.07-4.67-11.02-4.67-17.87,0-9.74,3.12-17.63,9.36-23.65,6.24-6.02,14.86-9.04,25.85-9.04,8.92,0,15.96,1.35,21.13,4.05,5.16,2.7,9.1,6.61,11.8,11.74,2.7,5.13,4.05,11.8,4.05,20.01v2.7ZM437.77,124.9c-.47-4.62-1.71-7.92-3.73-9.92-2.02-2-4.67-2.99-7.95-2.99-3.8,0-6.83,1.51-9.1,4.52-1.45,1.88-2.37,4.68-2.76,8.39h23.53Z"/>
      <path class="st1" d="M494.81,119.44l-22.83-2.41c.86-3.99,2.1-7.13,3.73-9.42,1.62-2.29,3.96-4.27,7.01-5.96,2.19-1.21,5.2-2.15,9.04-2.82,3.83-.66,7.98-1,12.44-1,7.16,0,12.91.4,17.25,1.2,4.34.8,7.96,2.47,10.86,5.02,2.03,1.76,3.64,4.25,4.81,7.48,1.17,3.23,1.76,6.31,1.76,9.24v27.52c0,2.93.19,5.23.56,6.9.37,1.66,1.18,3.79,2.44,6.37h-22.42c-.9-1.6-1.49-2.83-1.76-3.67-.27-.84-.55-2.16-.82-3.96-3.13,3.01-6.24,5.16-9.33,6.46-4.23,1.72-9.14,2.58-14.73,2.58-7.43,0-13.08-1.72-16.93-5.16-3.85-3.44-5.78-7.69-5.78-12.74,0-4.73,1.39-8.63,4.17-11.68,2.78-3.05,7.9-5.32,15.38-6.81,8.96-1.8,14.77-3.06,17.43-3.79,2.66-.72,5.48-1.67,8.45-2.85,0-2.93-.61-4.99-1.82-6.16-1.21-1.17-3.34-1.76-6.4-1.76-3.91,0-6.85.63-8.8,1.88-1.53.98-2.76,2.82-3.7,5.52ZM515.53,132c-3.29,1.17-6.71,2.21-10.27,3.11-4.85,1.29-7.92,2.56-9.21,3.81-1.33,1.29-2,2.76-2,4.4,0,1.88.65,3.41,1.97,4.61,1.31,1.19,3.24,1.79,5.78,1.79s5.14-.65,7.42-1.94c2.29-1.29,3.91-2.87,4.87-4.72.96-1.86,1.44-4.27,1.44-7.25v-3.81Z"/>
      <path class="st1" d="M618.82,75.54v86.04h-22.36v-9.21c-3.13,3.91-5.99,6.55-8.57,7.92-3.44,1.8-7.28,2.7-11.5,2.7-8.49,0-14.98-3.23-19.45-9.68-4.48-6.46-6.72-14.3-6.72-23.53,0-10.33,2.47-18.23,7.42-23.71,4.95-5.48,11.24-8.22,18.87-8.22,3.72,0,7.09.63,10.12,1.88,3.03,1.25,5.72,3.13,8.07,5.63v-29.81h24.12ZM594.87,130.24c0-4.89-1.04-8.54-3.11-10.95-2.07-2.41-4.7-3.61-7.86-3.61-2.78,0-5.11,1.15-6.98,3.46-1.88,2.31-2.82,6.18-2.82,11.62,0,5.09.97,8.81,2.91,11.18,1.94,2.37,4.33,3.55,7.19,3.55,3.05,0,5.59-1.19,7.63-3.58,2.03-2.39,3.05-6.28,3.05-11.68Z"/>
      <path class="st1" d="M634.08,185.46v-86.21h9.62v8.1c2.27-3.17,4.83-5.55,7.69-7.13,2.86-1.58,6.32-2.38,10.39-2.38,5.32,0,10.02,1.37,14.09,4.11,4.07,2.74,7.14,6.6,9.21,11.59,2.07,4.99,3.11,10.46,3.11,16.4,0,6.38-1.14,12.12-3.43,17.22-2.29,5.11-5.61,9.02-9.98,11.74-4.36,2.72-8.95,4.08-13.76,4.08-3.52,0-6.68-.74-9.48-2.23-2.8-1.49-5.1-3.36-6.9-5.63v30.34h-10.56ZM643.64,130.77c0,8.02,1.62,13.95,4.87,17.78,3.25,3.83,7.18,5.75,11.8,5.75s8.72-1.99,12.06-5.96c3.34-3.97,5.02-10.12,5.02-18.46s-1.63-13.89-4.9-17.84c-3.27-3.95-7.17-5.93-11.71-5.93s-8.48,2.1-11.94,6.31c-3.46,4.21-5.19,10.32-5.19,18.34Z"/>
      <path class="st1" d="M741.59,153.89c-3.91,3.33-7.68,5.67-11.3,7.04-3.62,1.37-7.5,2.05-11.65,2.05-6.85,0-12.11-1.67-15.79-5.02-3.68-3.35-5.52-7.62-5.52-12.82,0-3.05.69-5.84,2.08-8.36,1.39-2.52,3.21-4.55,5.46-6.07,2.25-1.53,4.78-2.68,7.6-3.46,2.07-.55,5.2-1.08,9.39-1.58,8.53-1.02,14.81-2.23,18.84-3.64.04-1.45.06-2.37.06-2.76,0-4.3-1-7.34-2.99-9.1-2.7-2.39-6.71-3.58-12.03-3.58-4.97,0-8.64.87-11,2.61-2.37,1.74-4.12,4.82-5.25,9.24l-10.33-1.41c.94-4.42,2.48-7.99,4.64-10.71,2.15-2.72,5.26-4.81,9.33-6.28,4.07-1.47,8.78-2.2,14.14-2.2s9.64.63,12.97,1.88c3.33,1.25,5.77,2.83,7.34,4.72,1.56,1.9,2.66,4.29,3.29,7.19.35,1.8.53,5.05.53,9.74v14.09c0,9.82.22,16.03.67,18.63.45,2.6,1.34,5.1,2.67,7.48h-11.03c-1.1-2.19-1.8-4.75-2.11-7.69ZM740.71,130.3c-3.83,1.57-9.59,2.9-17.25,3.99-4.34.63-7.42,1.33-9.21,2.11-1.8.78-3.19,1.93-4.17,3.43-.98,1.51-1.47,3.18-1.47,5.02,0,2.82,1.07,5.16,3.2,7.04,2.13,1.88,5.25,2.82,9.36,2.82s7.69-.89,10.86-2.67c3.17-1.78,5.5-4.22,6.98-7.31,1.13-2.39,1.7-5.91,1.7-10.56v-3.87Z"/>
      <path class="st1" d="M765.83,166.74l10.27,1.53c.43,3.17,1.62,5.48,3.58,6.93,2.62,1.96,6.2,2.93,10.74,2.93,4.89,0,8.67-.98,11.33-2.93,2.66-1.96,4.46-4.7,5.4-8.22.55-2.15.8-6.67.76-13.56-4.62,5.44-10.37,8.16-17.25,8.16-8.57,0-15.2-3.09-19.9-9.27-4.7-6.18-7.04-13.6-7.04-22.24,0-5.95,1.08-11.43,3.23-16.46,2.15-5.03,5.27-8.91,9.36-11.65,4.09-2.74,8.89-4.11,14.41-4.11,7.36,0,13.42,2.97,18.19,8.92v-7.51h9.74v53.88c0,9.7-.99,16.58-2.96,20.63-1.98,4.05-5.11,7.25-9.39,9.6s-9.56,3.52-15.82,3.52c-7.43,0-13.44-1.67-18.02-5.02-4.58-3.35-6.79-8.38-6.63-15.11ZM774.58,129.3c0,8.18,1.62,14.14,4.87,17.9,3.25,3.76,7.32,5.63,12.21,5.63s8.92-1.87,12.21-5.6c3.29-3.74,4.93-9.6,4.93-17.58s-1.69-13.38-5.08-17.25c-3.38-3.87-7.46-5.81-12.24-5.81s-8.69,1.91-11.97,5.72c-3.29,3.81-4.93,9.48-4.93,16.99Z"/>
      <path class="st1" d="M877.28,141.51l10.92,1.35c-1.72,6.38-4.91,11.33-9.57,14.85-4.66,3.52-10.6,5.28-17.84,5.28-9.12,0-16.34-2.81-21.69-8.42-5.34-5.61-8.01-13.49-8.01-23.62s2.7-18.62,8.1-24.41c5.4-5.79,12.4-8.69,21.01-8.69s15.14,2.84,20.42,8.51c5.28,5.67,7.92,13.65,7.92,23.94,0,.63-.02,1.57-.06,2.82h-46.48c.39,6.85,2.33,12.09,5.81,15.73,3.48,3.64,7.82,5.46,13.03,5.46,3.87,0,7.18-1.02,9.92-3.05,2.74-2.03,4.91-5.28,6.51-9.74ZM842.59,124.43h34.8c-.47-5.24-1.8-9.17-3.99-11.8-3.37-4.07-7.73-6.1-13.09-6.1-4.85,0-8.93,1.62-12.24,4.87-3.31,3.25-5.14,7.59-5.49,13.03Z"/>
      <path class="st1" d="M897.23,142.97l10.45-1.64c.59,4.19,2.22,7.39,4.9,9.62,2.68,2.23,6.43,3.35,11.24,3.35s8.45-.99,10.8-2.96c2.35-1.98,3.52-4.29,3.52-6.95,0-2.39-1.04-4.26-3.11-5.63-1.45-.94-5.05-2.13-10.8-3.58-7.75-1.96-13.12-3.65-16.11-5.08-2.99-1.43-5.26-3.4-6.81-5.93-1.55-2.52-2.32-5.31-2.32-8.36,0-2.78.64-5.35,1.91-7.72,1.27-2.37,3-4.33,5.19-5.9,1.64-1.21,3.88-2.24,6.72-3.08,2.84-.84,5.88-1.26,9.13-1.26,4.89,0,9.18.7,12.88,2.11,3.7,1.41,6.43,3.32,8.19,5.72,1.76,2.41,2.97,5.62,3.64,9.65l-10.33,1.41c-.47-3.21-1.83-5.71-4.08-7.51-2.25-1.8-5.43-2.7-9.54-2.7-4.85,0-8.31.8-10.39,2.41-2.07,1.6-3.11,3.48-3.11,5.63,0,1.37.43,2.6,1.29,3.7.86,1.14,2.21,2.07,4.05,2.82,1.06.39,4.17,1.29,9.33,2.7,7.47,2,12.69,3.63,15.64,4.9,2.95,1.27,5.27,3.12,6.95,5.55,1.68,2.43,2.52,5.44,2.52,9.04s-1.03,6.84-3.08,9.95c-2.05,3.11-5.02,5.52-8.89,7.22-3.87,1.7-8.26,2.55-13.15,2.55-8.1,0-14.27-1.68-18.52-5.05-4.25-3.36-6.95-8.35-8.13-14.97Z"/>
    </g>
    <g id="smart-sites">
      <path class="st1" d="M356.24,230.67l5.09-.44c.24,2.04.8,3.71,1.68,5.02.88,1.31,2.25,2.36,4.1,3.17,1.85.81,3.94,1.21,6.26,1.21,2.06,0,3.87-.31,5.45-.92,1.58-.61,2.75-1.45,3.52-2.52.77-1.07,1.15-2.23,1.15-3.49s-.37-2.4-1.11-3.35c-.74-.95-1.97-1.76-3.67-2.41-1.09-.43-3.51-1.09-7.26-1.99-3.74-.9-6.37-1.75-7.87-2.54-1.95-1.02-3.4-2.28-4.35-3.8-.96-1.51-1.43-3.2-1.43-5.07,0-2.06.58-3.98,1.75-5.77,1.17-1.79,2.87-3.15,5.12-4.07,2.24-.93,4.74-1.39,7.48-1.39,3.02,0,5.69.49,7.99,1.46,2.31.97,4.08,2.41,5.33,4.3,1.24,1.89,1.91,4.03,2,6.42l-5.17.39c-.28-2.58-1.22-4.52-2.82-5.84-1.6-1.32-3.97-1.97-7.11-1.97s-5.64.6-7.13,1.79c-1.49,1.2-2.24,2.64-2.24,4.32,0,1.46.53,2.67,1.58,3.61,1.04.95,3.75,1.91,8.13,2.91,4.38.99,7.39,1.86,9.02,2.6,2.37,1.09,4.12,2.48,5.26,4.16,1.13,1.68,1.7,3.61,1.7,5.8s-.62,4.21-1.86,6.13c-1.24,1.92-3.03,3.41-5.35,4.48-2.33,1.07-4.95,1.6-7.86,1.6-3.69,0-6.78-.54-9.27-1.61-2.49-1.07-4.45-2.69-5.87-4.85-1.42-2.16-2.16-4.6-2.24-7.33Z"/>
      <path class="st1" d="M395.42,243.76v-29.53h4.48v4.14c.93-1.45,2.16-2.61,3.7-3.49,1.54-.88,3.29-1.32,5.26-1.32,2.19,0,3.98.45,5.38,1.36,1.4.91,2.39,2.18,2.96,3.81,2.34-3.45,5.38-5.17,9.12-5.17,2.93,0,5.18.81,6.76,2.43,1.58,1.62,2.36,4.12,2.36,7.49v20.27h-4.98v-18.6c0-2-.16-3.44-.49-4.32-.32-.88-.91-1.59-1.77-2.13-.85-.54-1.85-.81-3-.81-2.08,0-3.8.69-5.17,2.07-1.37,1.38-2.06,3.59-2.06,6.63v17.16h-5.01v-19.19c0-2.22-.41-3.89-1.22-5.01-.82-1.11-2.15-1.67-4-1.67-1.41,0-2.71.37-3.91,1.11-1.2.74-2.06,1.83-2.6,3.25-.54,1.43-.81,3.49-.81,6.17v15.32h-5.01Z"/>
      <path class="st1" d="M462.13,240.12c-1.85,1.58-3.64,2.69-5.35,3.34-1.72.65-3.56.97-5.52.97-3.24,0-5.74-.79-7.48-2.38-1.74-1.59-2.61-3.61-2.61-6.08,0-1.45.33-2.77.99-3.96.66-1.2,1.52-2.15,2.59-2.88,1.07-.72,2.27-1.27,3.6-1.64.98-.26,2.47-.51,4.45-.75,4.04-.48,7.02-1.06,8.93-1.72.02-.69.03-1.12.03-1.31,0-2.04-.47-3.48-1.42-4.31-1.28-1.13-3.18-1.7-5.7-1.7-2.35,0-4.09.41-5.21,1.24-1.12.83-1.95,2.28-2.49,4.38l-4.89-.67c.44-2.09,1.18-3.79,2.2-5.08,1.02-1.29,2.49-2.28,4.42-2.98,1.93-.7,4.16-1.04,6.7-1.04s4.57.3,6.15.89c1.58.59,2.73,1.34,3.48,2.24.74.9,1.26,2.03,1.56,3.41.17.85.25,2.39.25,4.62v6.67c0,4.65.11,7.6.32,8.83.21,1.23.63,2.41,1.27,3.55h-5.23c-.52-1.04-.85-2.25-1-3.64ZM461.71,228.94c-1.82.74-4.54,1.37-8.18,1.89-2.06.3-3.51.63-4.37,1-.85.37-1.51.91-1.97,1.63-.46.71-.7,1.51-.7,2.38,0,1.33.5,2.45,1.52,3.34,1.01.89,2.49,1.33,4.44,1.33s3.64-.42,5.14-1.27c1.5-.84,2.6-2,3.31-3.46.54-1.13.81-2.8.81-5.01v-1.84Z"/>
      <path class="st1" d="M474.48,243.76v-29.53h4.5v4.48c1.15-2.09,2.21-3.48,3.18-4.14s2.04-1,3.21-1c1.69,0,3.4.54,5.14,1.61l-1.72,4.64c-1.22-.72-2.45-1.08-3.67-1.08-1.09,0-2.08.33-2.95.99-.87.66-1.49,1.57-1.86,2.74-.56,1.78-.83,3.73-.83,5.84v15.46h-5.01Z"/>
      <path class="st1" d="M504.43,239.29l.72,4.42c-1.41.3-2.67.45-3.78.45-1.82,0-3.23-.29-4.23-.86-1-.57-1.71-1.33-2.11-2.27-.41-.94-.61-2.91-.61-5.91v-16.99h-3.67v-3.89h3.67v-7.31l4.98-3v10.32h5.03v3.89h-5.03v17.27c0,1.43.09,2.35.26,2.75.18.41.46.73.86.97.4.24.97.36,1.71.36.56,0,1.29-.06,2.2-.19Z"/>
      <path class="st1" d="M523.14,234.95l4.95-.78c.28,1.98,1.05,3.5,2.32,4.56,1.27,1.06,3.05,1.59,5.33,1.59s4-.47,5.12-1.4c1.11-.94,1.67-2.03,1.67-3.3,0-1.13-.49-2.02-1.47-2.67-.69-.45-2.39-1.01-5.12-1.7-3.67-.93-6.22-1.73-7.63-2.41-1.42-.68-2.49-1.61-3.23-2.81-.73-1.2-1.1-2.52-1.1-3.96,0-1.32.3-2.53.9-3.66.6-1.12,1.42-2.05,2.46-2.79.78-.57,1.84-1.06,3.18-1.46,1.34-.4,2.79-.6,4.32-.6,2.32,0,4.35.33,6.1,1,1.75.67,3.05,1.57,3.88,2.71.83,1.14,1.41,2.67,1.72,4.57l-4.89.67c-.22-1.52-.87-2.71-1.93-3.56-1.07-.85-2.57-1.28-4.52-1.28-2.3,0-3.94.38-4.92,1.14-.98.76-1.47,1.65-1.47,2.67,0,.65.2,1.23.61,1.75.41.54,1.05.98,1.92,1.33.5.19,1.97.61,4.42,1.28,3.54.95,6.01,1.72,7.41,2.32,1.4.6,2.5,1.48,3.3,2.63.8,1.15,1.2,2.58,1.2,4.28s-.49,3.24-1.46,4.71c-.97,1.47-2.38,2.61-4.21,3.42-1.84.81-3.91,1.21-6.23,1.21-3.84,0-6.76-.8-8.77-2.39-2.01-1.59-3.3-3.96-3.85-7.09Z"/>
      <path class="st1" d="M553.65,208.75v-5.76h5.01v5.76h-5.01ZM553.65,243.76v-29.53h5.01v29.53h-5.01Z"/>
      <path class="st1" d="M577.2,239.29l.72,4.42c-1.41.3-2.67.45-3.78.45-1.82,0-3.23-.29-4.23-.86-1-.57-1.71-1.33-2.11-2.27-.41-.94-.61-2.91-.61-5.91v-16.99h-3.67v-3.89h3.67v-7.31l4.98-3v10.32h5.03v3.89h-5.03v17.27c0,1.43.09,2.35.26,2.75.18.41.46.73.86.97.4.24.97.36,1.71.36.56,0,1.29-.06,2.2-.19Z"/>
      <path class="st1" d="M602.31,234.25l5.17.64c-.82,3.02-2.33,5.37-4.53,7.04-2.21,1.67-5.02,2.5-8.45,2.5-4.32,0-7.74-1.33-10.28-3.99-2.53-2.66-3.8-6.39-3.8-11.19s1.28-8.82,3.84-11.57c2.56-2.74,5.88-4.12,9.96-4.12s7.17,1.34,9.68,4.03c2.5,2.69,3.75,6.47,3.75,11.35,0,.3,0,.74-.03,1.33h-22.02c.19,3.24,1.1,5.73,2.75,7.45,1.65,1.72,3.71,2.59,6.17,2.59,1.84,0,3.4-.48,4.7-1.45,1.3-.96,2.33-2.5,3.09-4.62ZM585.88,226.16h16.49c-.22-2.48-.85-4.35-1.89-5.59-1.59-1.93-3.66-2.89-6.2-2.89-2.3,0-4.23.77-5.8,2.31-1.57,1.54-2.43,3.6-2.6,6.17Z"/>
      <path class="st1" d="M611.77,234.95l4.95-.78c.28,1.98,1.05,3.5,2.32,4.56,1.27,1.06,3.05,1.59,5.33,1.59s4-.47,5.12-1.4c1.11-.94,1.67-2.03,1.67-3.3,0-1.13-.49-2.02-1.47-2.67-.69-.45-2.39-1.01-5.12-1.7-3.67-.93-6.22-1.73-7.63-2.41-1.42-.68-2.49-1.61-3.23-2.81-.73-1.2-1.1-2.52-1.1-3.96,0-1.32.3-2.53.9-3.66.6-1.12,1.42-2.05,2.46-2.79.78-.57,1.84-1.06,3.18-1.46,1.34-.4,2.79-.6,4.32-.6,2.32,0,4.35.33,6.1,1s3.05,1.57,3.88,2.71c.83,1.14,1.41,2.67,1.72,4.57l-4.89.67c-.22-1.52-.87-2.71-1.93-3.56-1.07-.85-2.57-1.28-4.52-1.28-2.3,0-3.94.38-4.92,1.14-.98.76-1.47,1.65-1.47,2.67,0,.65.2,1.23.61,1.75.41.54,1.05.98,1.92,1.33.5.19,1.97.61,4.42,1.28,3.54.95,6.01,1.72,7.41,2.32,1.4.6,2.5,1.48,3.3,2.63.8,1.15,1.2,2.58,1.2,4.28s-.49,3.24-1.46,4.71c-.97,1.47-2.38,2.61-4.21,3.42-1.84.81-3.91,1.21-6.23,1.21-3.84,0-6.76-.8-8.77-2.39-2.01-1.59-3.3-3.96-3.85-7.09Z"/>
      <path class="st1" d="M643.66,243.76v-5.7h5.7v5.7h-5.7Z"/>
    </g>
    <g id="more-leads">
      <path class="st0" d="M674.54,243.76v-40.77h8.12l9.65,28.87c.89,2.69,1.54,4.7,1.95,6.03.46-1.48,1.19-3.66,2.17-6.53l9.76-28.36h7.26v40.77h-5.2v-34.12l-11.85,34.12h-4.87l-11.79-34.7v34.7h-5.2Z"/>
      <path class="st0" d="M719.65,229c0-5.47,1.52-9.52,4.56-12.15,2.54-2.19,5.64-3.28,9.29-3.28,4.06,0,7.38,1.33,9.96,3.99,2.58,2.66,3.87,6.34,3.87,11.03,0,3.8-.57,6.79-1.71,8.97-1.14,2.18-2.8,3.87-4.98,5.08-2.18,1.2-4.56,1.81-7.13,1.81-4.13,0-7.48-1.33-10.02-3.98-2.55-2.65-3.82-6.47-3.82-11.46ZM724.79,229c0,3.78.82,6.61,2.47,8.5,1.65,1.88,3.73,2.82,6.23,2.82s4.55-.95,6.2-2.84c1.65-1.89,2.48-4.77,2.48-8.65,0-3.65-.83-6.42-2.49-8.3-1.66-1.88-3.72-2.82-6.19-2.82s-4.58.94-6.23,2.81-2.47,4.7-2.47,8.48Z"/>
      <path class="st0" d="M753.13,243.76v-29.53h4.51v4.48c1.15-2.09,2.21-3.48,3.18-4.14s2.04-1,3.21-1c1.69,0,3.4.54,5.14,1.61l-1.72,4.64c-1.22-.72-2.45-1.08-3.67-1.08-1.09,0-2.08.33-2.95.99-.87.66-1.49,1.57-1.86,2.74-.56,1.78-.83,3.73-.83,5.84v15.46h-5.01Z"/>
      <path class="st0" d="M792.37,234.25l5.17.64c-.82,3.02-2.33,5.37-4.53,7.04-2.21,1.67-5.02,2.5-8.45,2.5-4.32,0-7.74-1.33-10.28-3.99-2.53-2.66-3.8-6.39-3.8-11.19s1.28-8.82,3.84-11.57c2.56-2.74,5.88-4.12,9.96-4.12s7.17,1.34,9.68,4.03,3.75,6.47,3.75,11.35c0,.3,0,.74-.03,1.33h-22.02c.19,3.24,1.1,5.73,2.75,7.45,1.65,1.72,3.71,2.59,6.17,2.59,1.84,0,3.4-.48,4.7-1.45,1.3-.96,2.33-2.5,3.09-4.62ZM775.93,226.16h16.49c-.22-2.48-.85-4.35-1.89-5.59-1.59-1.93-3.66-2.89-6.2-2.89-2.3,0-4.23.77-5.8,2.31-1.57,1.54-2.43,3.6-2.6,6.17Z"/>
      <path class="st0" d="M819.54,243.76v-40.77h5.01v40.77h-5.01Z"/>
      <path class="st0" d="M852.52,234.25l5.17.64c-.82,3.02-2.33,5.37-4.53,7.04-2.21,1.67-5.02,2.5-8.45,2.5-4.32,0-7.74-1.33-10.28-3.99-2.53-2.66-3.8-6.39-3.8-11.19s1.28-8.82,3.84-11.57c2.56-2.74,5.88-4.12,9.96-4.12s7.17,1.34,9.68,4.03c2.5,2.69,3.75,6.47,3.75,11.35,0,.3,0,.74-.03,1.33h-22.02c.19,3.24,1.1,5.73,2.75,7.45,1.65,1.72,3.71,2.59,6.17,2.59,1.84,0,3.4-.48,4.7-1.45,1.3-.96,2.33-2.5,3.09-4.62ZM836.08,226.16h16.49c-.22-2.48-.85-4.35-1.89-5.59-1.59-1.93-3.66-2.89-6.2-2.89-2.3,0-4.23.77-5.8,2.31-1.57,1.54-2.43,3.6-2.6,6.17Z"/>
      <path class="st0" d="M883.25,240.12c-1.85,1.58-3.64,2.69-5.35,3.34-1.71.65-3.56.97-5.52.97-3.24,0-5.74-.79-7.48-2.38-1.74-1.59-2.61-3.61-2.61-6.08,0-1.45.33-2.77.99-3.96.66-1.2,1.52-2.15,2.59-2.88,1.07-.72,2.27-1.27,3.6-1.64.98-.26,2.47-.51,4.45-.75,4.04-.48,7.02-1.06,8.93-1.72.02-.69.03-1.12.03-1.31,0-2.04-.47-3.48-1.42-4.31-1.28-1.13-3.18-1.7-5.7-1.7-2.35,0-4.09.41-5.21,1.24-1.12.83-1.95,2.28-2.49,4.38l-4.89-.67c.45-2.09,1.18-3.79,2.2-5.08,1.02-1.29,2.49-2.28,4.42-2.98,1.93-.7,4.16-1.04,6.7-1.04s4.57.3,6.15.89c1.58.59,2.73,1.34,3.48,2.24.74.9,1.26,2.03,1.56,3.41.17.85.25,2.39.25,4.62v6.67c0,4.65.11,7.6.32,8.83.21,1.23.63,2.41,1.27,3.55h-5.23c-.52-1.04-.85-2.25-1-3.64ZM882.83,228.94c-1.82.74-4.54,1.37-8.18,1.89-2.06.3-3.51.63-4.37,1-.85.37-1.51.91-1.97,1.63-.46.71-.7,1.51-.7,2.38,0,1.33.5,2.45,1.52,3.34,1.01.89,2.49,1.33,4.44,1.33s3.64-.42,5.14-1.27c1.5-.84,2.6-2,3.31-3.46.54-1.13.81-2.8.81-5.01v-1.84Z"/>
      <path class="st0" d="M914.81,243.76v-3.73c-1.87,2.93-4.63,4.39-8.26,4.39-2.35,0-4.52-.65-6.49-1.95s-3.5-3.11-4.59-5.44c-1.08-2.33-1.63-5-1.63-8.02s.49-5.62,1.47-8.02c.98-2.4,2.46-4.24,4.42-5.52s4.16-1.92,6.59-1.92c1.78,0,3.36.38,4.76,1.13,1.39.75,2.52,1.73,3.39,2.93v-14.63h4.98v40.77h-4.64ZM898.98,229.03c0,3.78.8,6.61,2.39,8.48,1.59,1.87,3.48,2.81,5.65,2.81s4.05-.89,5.58-2.68c1.53-1.79,2.29-4.52,2.29-8.19,0-4.04-.78-7.01-2.34-8.9-1.56-1.89-3.48-2.84-5.76-2.84s-4.08.91-5.58,2.73c-1.49,1.82-2.24,4.68-2.24,8.59Z"/>
      <path class="st0" d="M925.32,234.95l4.95-.78c.28,1.98,1.05,3.5,2.32,4.56,1.27,1.06,3.05,1.59,5.33,1.59s4-.47,5.12-1.4c1.11-.94,1.67-2.03,1.67-3.3,0-1.13-.49-2.02-1.47-2.67-.69-.45-2.39-1.01-5.12-1.7-3.67-.93-6.22-1.73-7.63-2.41-1.42-.68-2.49-1.61-3.23-2.81-.73-1.2-1.1-2.52-1.1-3.96,0-1.32.3-2.53.9-3.66.6-1.12,1.42-2.05,2.46-2.79.78-.57,1.84-1.06,3.18-1.46,1.34-.4,2.79-.6,4.32-.6,2.32,0,4.35.33,6.1,1s3.05,1.57,3.88,2.71c.83,1.14,1.41,2.67,1.72,4.57l-4.89.67c-.22-1.52-.87-2.71-1.93-3.56-1.07-.85-2.57-1.28-4.52-1.28-2.3,0-3.94.38-4.92,1.14-.98.76-1.47,1.65-1.47,2.67,0,.65.2,1.23.61,1.75.41.54,1.05.98,1.92,1.33.5.19,1.97.61,4.42,1.28,3.54.95,6.01,1.72,7.41,2.32,1.4.6,2.5,1.48,3.3,2.63.8,1.15,1.2,2.58,1.2,4.28s-.49,3.24-1.46,4.71c-.97,1.47-2.38,2.61-4.21,3.42-1.84.81-3.91,1.21-6.23,1.21-3.84,0-6.76-.8-8.77-2.39-2.01-1.59-3.3-3.96-3.85-7.09Z"/>
      <path class="st0" d="M957.22,243.76v-5.7h5.7v5.7h-5.7Z"/>
    </g>
  </g>
  <path id="outer-circle" class="st0" d="M168.33,229.3c-2.46.17-4.99.23-7.89.23-25.42,0-49.32-9.9-67.3-27.88s-27.88-41.88-27.88-67.3,9.9-49.32,27.88-67.3c17.98-17.98,41.88-27.88,67.3-27.88s49.32,9.9,67.3,27.88c17.98,17.98,27.88,41.88,27.88,67.3,0,3.18,0,5.49-.18,7.85l27.3,8.23c.7-5.33,1.05-10.71,1.05-16.07,0-16.65-3.26-32.8-9.7-48.02-6.21-14.69-15.11-27.88-26.43-39.21-11.32-11.32-24.52-20.22-39.21-26.43-15.22-6.44-31.37-9.7-48.02-9.7s-32.8,3.26-48.02,9.7c-14.69,6.21-27.88,15.11-39.21,26.43s-20.22,24.51-26.43,39.21c-6.44,15.22-9.7,31.37-9.7,48.02s3.26,32.8,9.7,48.02c6.21,14.69,15.11,27.88,26.43,39.21,11.32,11.32,24.51,20.22,39.21,26.43,15.22,6.44,31.37,9.7,48.02,9.7,5.39,0,10.79-.36,16.13-1.06l-8.24-27.34Z"/>
  <path id="arrow" class="st1" d="M331.86,266.49l-53.89-53.89,39.47-17.97c3.07-1.4,4.5-4.84,3.57-8.55-.49-1.94-1.57-3.74-3.02-5.19-1.33-1.33-2.97-2.36-4.75-2.89l-142.93-43.06c-2.95-.89-5.82-.31-7.68,1.55-1.86,1.86-2.44,4.73-1.55,7.68l43.06,142.93c1.12,3.7,4.36,6.82,8.08,7.76,3.72.94,7.16-.49,8.55-3.57l17.97-39.47,53.89,53.89c3.8,3.8,9.38,4.4,12.44,1.34l28.13-28.13c3.06-3.06,2.46-8.64-1.34-12.44Z"/>
  <path id="inner-circle" class="st0" d="M153.23,179.17c-21.62-3.46-38.19-22.25-38.19-44.83,0-25.03,20.37-45.4,45.4-45.4,22.56,0,41.33,16.54,44.82,38.13l25.93,7.81c0-.18,0-.36,0-.54,0-18.9-7.36-36.67-20.72-50.03-13.36-13.36-31.13-20.72-50.03-20.72s-36.67,7.36-50.03,20.72c-13.36,13.36-20.72,31.13-20.72,50.03s7.36,36.67,20.72,50.03c13.36,13.36,31.13,20.72,50.03,20.72.2,0,.4,0,.6,0l-7.81-25.92Z"/>
</svg>